<svg xmlns="http://www.w3.org/2000/svg" width="141" height="149"><path d="M 26.981 61.83 L 26.981 74.677 M 44.538 50.696 L 53.103 50.696 M 26.124 33.995 C 27.044 33.88 26.553 28.914 26.553 28 M 3 49.412 L 15.847 49.412 M 18.416 39.562 C 17.65 39.562 15.799 37.754 15.419 36.992 M 39.828 39.562 C 42.301 39.562 42.631 37.946 44.538 36.992 M 39.828 59.69 C 39.954 60.701 43.944 63.889 44.966 64.4 M 15.418 61.402 C 12.318 61.402 11.383 64.062 8.995 65.256" fill="transparent" stroke-width="5" stroke="rgb(0,0,0)" stroke-linecap="round" stroke-miterlimit="10" stroke-dasharray=""></path><path d="M 56.298 4.906 C 54.463 4.677 54.879 3.61 53.014 4.853 C 52.862 4.955 53.95 4.924 54.179 4.694 C 55.049 3.826 53.976 3.269 53.439 3" fill="transparent" stroke-width="5" stroke="hsl(0, 0%, 0%)" stroke-linecap="round" stroke-linejoin="round"></path><path d="M 137.883 116.201 C 136.573 114.891 132.496 111.729 130.469 113.553 C 128.841 115.019 131.876 117.73 133.117 115.247" fill="transparent" stroke-width="5" stroke="hsl(0, 0%, 0%)" stroke-linecap="round" stroke-linejoin="round"></path><g transform="translate(62 86)"><path d="M 0.764 29.002 C 1.394 29.002 2.048 29.054 2.674 28.988 C 3.821 28.867 4.544 27.587 5.404 26.965 C 7.914 25.148 9.082 22.544 10.568 19.961 C 12.561 16.5 12.733 12.759 12.733 8.884 L 12.733 4.809 C 12.733 3.699 12.223 2.694 12.223 1.626 C 12.223 0.888 11.969 -1.052 11.969 0.735 L 11.969 11.925 C 11.969 13.81 12.667 15.622 12.733 17.486 C 12.832 20.247 14.349 23.742 16.298 25.691 C 17.118 26.512 17.616 27.518 18.463 28.365 C 19.27 29.172 20.239 29.769 21.25 30.218 C 23.249 31.107 25.843 30.784 28.012 30.784" fill="transparent" stroke-width="5" stroke="hsl(0, 0%, 0%)" stroke-linecap="round" stroke-linejoin="round"></path><path d="M -0 29.766 C 1.07 29.766 1.87 29.702 2.801 30.218 C 3.61 30.668 4.294 31.85 4.838 32.624 C 7.088 35.82 8.835 38.744 9.691 42.598 C 10.598 46.679 10.951 50.832 10.951 55.033 L 10.951 59.815 C 10.951 61.108 11.087 59.616 11.191 59.15 C 11.637 57.141 11.491 55.033 12.111 52.996 C 12.814 50.683 13.211 48.098 14.261 45.922 C 15.775 42.785 16.601 39.458 18.59 36.585 C 19.977 34.581 21.049 33.11 23.556 32.553 C 24.459 32.352 25.405 31.803 26.343 31.803 L 28.267 31.803" fill="transparent" stroke-width="5" stroke="hsl(0, 0%, 0%)" stroke-linecap="round" stroke-linejoin="round"></path></g><g transform="translate(108 27.327)"><path d="M -0 21.025 C 3.968 21.025 6.133 26.782 6.947 30.037 C 7.593 32.621 7.328 35.382 7.784 38.006 C 7.913 38.746 8.023 39.701 8.023 40.441 C 8.023 40.835 8.219 42.131 8.219 41.082 C 8.219 38.345 8.843 35.779 9.871 33.255 C 10.92 30.681 12.557 28.454 14.089 26.156 C 15.899 23.441 18.466 22.982 21.525 22.982" fill="transparent" stroke-width="5" stroke="hsl(0, 0%, 0%)" stroke-linecap="round" stroke-linejoin="round"></path><path d="M 1.565 20.242 C 3.131 20.242 5.004 20.717 6.164 19.557 C 7.001 18.72 7.394 17.444 7.827 16.372 C 8.557 14.566 9.211 12.947 9.686 11.045 C 10.141 9.226 10.204 7.311 10.469 5.457 C 10.689 3.913 10.958 2.385 10.958 0.826 L 10.958 -0 C 10.958 1.324 11.355 2.694 11.545 4 C 12.222 8.658 12.735 14.396 15.361 18.48 C 15.945 19.39 20.232 22.531 21.5 22.673" fill="transparent" stroke-width="5" stroke="hsl(0, 0%, 0%)" stroke-linecap="round" stroke-linejoin="round"></path></g></svg>